#!OML:ASF H:\Terrain\Patient Classification 1\Walking\steve\steve.ASF
:FULLY-SPECIFIED
:DEGREES
219
root 9.89902 16.481 15.3096 5.30347 -1.32535 3.67211
lowerback 1.25478 0.493031 -5.26622
upperback -2.27427 0.490833 -0.77326
thorax -3.08948 0.358802 2.13385
lowerneck -8.58061 -0.633829 -3.02665
upperneck 14.3921 -1.33111 5.95153
head 5.81436 -0.374204 2.27729
rclavicle -9.99553e-015 -9.50439e-015
rhumerus -55.6937 -14.4249 -75.9805
rradius 23.5829
rwrist -7.0105
rhand -20.6775 -32.7024
rfingers 7.12502
rthumb 5.68569 -62.6061
lclavicle -9.99553e-015 -9.50439e-015
lhumerus -15.4734 -4.79414 87.1502
lradius 34.1918
lwrist 15.6546
lhand -24.805 -14.39
lfingers 7.12502
lthumb 1.69988 15.583
rfemur -40.4741 0.72901 20.6168
rtibia 47.484
rfoot -17.1391 2.32963
rtoes -10.8167
lfemur -3.55752 5.26842 -28.4576
ltibia 22.3384
lfoot -18.2849 -9.75412
ltoes 3.6171
220
root 9.90446 16.4644 15.5614 5.5997 -0.889373 3.88063
lowerback 1.05252 0.363595 -5.50648
upperback -2.29795 0.324956 -0.756274
thorax -2.98986 0.280026 2.29343
lowerneck -8.64723 -0.651688 -3.24277
upperneck 14.2594 -1.36316 6.25777
head 5.78868 -0.379328 2.40688
rclavicle 1.85179e-014 -6.96989e-015
rhumerus -57.1 -16.1846 -73.3158
rradius 21.9705
rwrist -3.40699
rhand -15.7124 -38.4709
rfingers 7.12502
rthumb 10.4776 -68.1898
lclavicle 1.85179e-014 -6.96989e-015
lhumerus -13.6655 -6.12357 86.9852
lradius 35.6948
lwrist 17.313
lhand -25.2544 -14.871
lfingers 7.12502
lthumb 1.26586 15.105
rfemur -41.1158 0.358379 20.5204
rtibia 43.9362
rfoot -16.632 2.90488
rtoes -13.2318
lfemur -2.28407 5.34281 -28.6031
ltibia 21.1254
lfoot -18.0771 -9.91517
ltoes 2.95338
221
root 9.90563 16.453 15.813 5.93101 -0.372824 3.47396
lowerback 0.922597 0.231321 -5.15698
upperback -2.39932 0.167084 -0.572677
thorax -3.00652 0.197853 2.29337
lowerneck -8.71656 -0.727121 -3.37297
upperneck 14.1615 -1.46851 6.43976
head 5.77727 -0.424127 2.47753
rclavicle -1.07433e-014 5.49143e-015
rhumerus -58.6881 -17.6234 -70.7886
rradius 20.8213
rwrist -0.499318
rhand -15.9002 -37.9949
rfingers 7.12502
rthumb 10.2964 -67.7229
lclavicle -1.07433e-014 5.49143e-015
lhumerus -12.0608 -7.48453 86.7596
lradius 37.3509
lwrist 19.1931
lhand -25.7641 -14.7512
lfingers 7.12502
lthumb 0.773601 15.2272
rfemur -41.6234 0.180413 21.0825
rtibia 40.2972
rfoot -16.1708 3.29238
rtoes -15.4267
lfemur -0.932715 5.40439 -28.0053
ltibia 19.7232
lfoot -17.7167 -10.3033
ltoes 3.70825
222
root 9.9044 16.4384 16.0688 6.14971 0.141701 2.96204
lowerback 0.799207 0.132949 -4.66466
upperback -2.47178 0.0569219 -0.416943
thorax -3.00042 0.134422 2.18238
lowerneck -8.69887 -0.760968 -3.15997
upperneck 14.0518 -1.53461 6.39778
head 5.74203 -0.449484 2.42269
rclavicle -8.08456e-015 -3.8763e-015
rhumerus -60.4198 -19.0596 -68.1613
rradius 19.594
rwrist 2.65428
rhand -17.0634 -37.5469
rfingers 7.12502
rthumb 9.17421 -67.3274
lclavicle -8.08456e-015 -3.8763e-015
lhumerus -10.5533 -8.65622 86.3815
lradius 39.0924
lwrist 20.2861
lhand -25.4253 -14.1136
lfingers 7.12502
lthumb 1.10083 15.8633
rfemur -42.0201 0.356716 21.5636
rtibia 36.7514
rfoot -15.8017 4.14503
rtoes -11.844
lfemur 0.809101 5.77014 -27.1909
ltibia 17.8173
lfoot -17.0073 -11.1324
ltoes 4.32023
223
root 9.90321 16.4294 16.3314 6.37804 0.682488 3.1858
lowerback 0.48042 0.048626 -4.92256
upperback -2.4595 -0.0425312 -0.43505
thorax -2.80169 0.0859945 2.31139
lowerneck -8.4367 -0.815211 -2.82477
upperneck 13.6126 -1.59933 6.12681
head 5.55941 -0.492318 2.2725
rclavicle 2.32252e-015 -4.72114e-015
rhumerus -62.4392 -21.1803 -64.3424
rradius 18.2058
rwrist 6.99041
rhand -17.2385 -38.3278
rfingers 7.12502
rthumb 9.00516 -68.1156
lclavicle 2.32252e-015 -4.72114e-015
lhumerus -8.93813 -9.74257 86.0374
lradius 40.6864
lwrist 21.0122
lhand -24.864 -14.3257
lfingers 7.12502
lthumb 1.64294 15.6477
rfemur -42.4784 0.648649 20.9857
rtibia 33.4724
rfoot -15.4154 4.7707
rtoes -8.03179
lfemur 2.84741 6.07625 -27.1682
ltibia 15.3214
lfoot -15.8515 -11.7482
ltoes 5.26822
224
root 9.90513 16.4299 16.5951 6.72549 1.42979 3.86458
lowerback 0.125828 -0.156034 -5.59134
upperback -2.52062 -0.309 -0.535506
thorax -2.6453 -0.0357689 2.5883
lowerneck -7.89354 -0.933106 -2.7244
upperneck 12.8543 -1.71125 5.88753
head 5.23383 -0.576101 2.16746
rclavicle -1.34972e-014 -6.80837e-015
rhumerus -64.606 -22.4541 -61.0539
rradius 17.4549
rwrist 10.2382
rhand -17.1618 -38.5675
rfingers 7.12502
rthumb 9.0792 -68.3521
lclavicle -1.34972e-014 -6.80837e-015
lhumerus -7.47755 -10.8208 85.6642
lradius 42.2738
lwrist 22.1065
lhand -25.3381 -15.0202
lfingers 7.12502
lthumb 1.18504 14.9563
rfemur -43.0146 0.74434 19.7831
rtibia 30.4673
rfoot -15.1234 4.72134
rtoes -7.84676
lfemur 4.98671 6.36808 -27.6025
ltibia 12.3427
lfoot -14.3715 -12.2112
ltoes 5.5771
225
root 9.91939 16.4201 16.8427 6.99152 2.33978 4.56577
lowerback 0.200935 -0.455459 -6.02966
upperback -2.62565 -0.728893 -0.709186
thorax -2.75985 -0.2321 2.66475
lowerneck -7.77552 -0.984313 -2.76729
upperneck 12.5199 -1.77055 5.95564
head 5.11396 -0.608566 2.18987
rclavicle 7.60973e-015 6.4605e-016
rhumerus -66.4565 -22.8985 -58.8515
rradius 17.0158
rwrist 12.1984
rhand -16.8514 -38.6122
rfingers 7.12502
rthumb 9.37872 -68.3836
lclavicle 7.60973e-015 6.4605e-016
lhumerus -6.16346 -11.6146 85.0864
lradius 44.0166
lwrist 23.1148
lhand -25.6421 -15.4953
lfingers 7.12502
lthumb 0.891409 14.4825
rfemur -43.6254 0.256663 18.7052
rtibia 27.9804
rfoot -14.828 5.0188
rtoes -6.28826
lfemur 7.90286 5.11644 -28.2635
ltibia 8.02262
lfoot -12.8857 -11.29
ltoes 5.3818
